<!-- checkout this image in iconscout : https://iconscout.com/illustration/studying-biology-online-9891493 -->
<svg xmlns="http://www.w3.org/2000/svg" enable-background="new 0 0 3000 3000" viewBox="0 0 3000 3000"><path fill="#ffffff" stroke="#dcdcdc" stroke-miterlimit="10" stroke-width="4.25" d="M1844.36,1344.47h-655.51c-27.74,0-50.22-22.48-50.22-50.22V599.81c0-27.74,22.48-50.22,50.22-50.22h655.51     c27.74,0,50.22,22.48,50.22,50.22v694.44C1894.58,1321.99,1872.09,1344.47,1844.36,1344.47z" class="colorfff svgShape colorStrokedcdcdc svgStroke"/><path fill="#e1e8ff" d="M1838.96,1244.55h-641.11c-16.63,0-30.11-13.48-30.11-30.11V668.96c0-16.63,13.48-30.11,30.11-30.11h641.11      c16.63,0,30.11,13.48,30.11,30.11v545.48C1869.07,1231.07,1855.59,1244.55,1838.96,1244.55z" class="colore1e8ff svgShape"/><polyline fill="none" stroke="#f9af9f" stroke-linecap="round" stroke-linejoin="round" stroke-miterlimit="10" stroke-width="132.746" points="1156.46 983.77 1328.31 1104.32 1453.99 950.43"/><path fill="#1e4273" d="M1395.53,889.71l-80.36,124.83l136.32,81.51l69.39-148.56C1519.21,865.52,1437.35,842.83,1395.53,889.71z" class="color1a95f1 svgShape"/><path fill="#1e4273" d="M1796.44,1243.77c-0.88,1.55-408.69,1.55-409.56,0.21l69.67-378.2l252.26,2.84L1796.44,1243.77z" class="color1a95f1 svgShape"/><path fill="none" stroke="#aec5ce" stroke-linecap="round" stroke-miterlimit="10" stroke-width="1.802" d="M1669.57 1007.79" class="colorStrokeaec5ce svgStroke"/><path fill="#f9af9f" d="M1583.31,824.97l-20.46,49.85c-2.12,5.17-0.17,11.1,4.54,13.96c25.12,15.22,51.04,16.12,77.71,3.22       c5.14-2.48,7.61-8.52,5.7-13.96l-17.8-50.7L1583.31,824.97z" class="colorf9af9f svgShape"/><path fill="#ef7f7f" d="M1647.45,867.39c-26.22,13.34-53,12.68-80.34-1.41l7.61-21.14l65.11,0.85L1647.45,867.39z" opacity=".65" class="coloref7f7f svgShape"/><path fill="#f9af9f" fill-rule="evenodd" d="M1734.65,711.4c-13.02-7.66-31.42-0.34-41.08,16.36c-9.65,16.7-6.92,36.48,6.11,44.14        c13.02,7.67,31.43,0.35,41.08-16.35C1750.42,738.84,1747.69,719.06,1734.65,711.4z" clip-rule="evenodd" class="colorf9af9f svgShape"/><path fill="#ef7f7f" fill-rule="evenodd" d="M1722.27,720.5c-8.67-5.1-20.92-0.22-27.36,10.9c-6.43,11.12-4.61,24.3,4.07,29.39        c8.67,5.11,20.93,0.23,27.36-10.89C1732.77,738.77,1730.95,725.6,1722.27,720.5z" clip-rule="evenodd" class="coloref7f7f svgShape"/><path fill="#f9af9f" fill-rule="evenodd" d="M1488.34,712.47c11.9-9.3,31.11-4.44,42.87,10.86c11.75,15.29,11.63,35.27-0.29,44.56        c-11.9,9.3-31.12,4.45-42.86-10.85C1476.29,741.74,1476.43,721.77,1488.34,712.47z" clip-rule="evenodd" class="colorf9af9f svgShape"/><path fill="#ef7f7f" fill-rule="evenodd" d="M1505.03,716.33c-9.65,2.84-14.47,15.12-10.76,27.41c3.72,12.29,14.58,19.98,24.23,17.13        c9.65-2.83,14.48-15.12,10.76-27.41C1525.55,721.17,1514.69,713.49,1505.03,716.33z" clip-rule="evenodd" class="coloref7f7f svgShape"/><path fill="#f9af9f" fill-rule="evenodd" d="M1603.37,858.13c-12.32-0.31-24.97-4.09-36.87-10.24c-41.43-21.42-66.49-77.23-52.76-135.48        c27.46-116.35,169.48-112.17,188.98,5.56c9.75,58.95-19.07,113.17-61.87,132.12C1628.57,855.52,1615.69,858.54,1603.37,858.13        z" clip-rule="evenodd" class="colorf9af9f svgShape"/><path fill-rule="evenodd" d="M1550.94 727.44c4.55.63 7.75 4.89 7.1 9.5-.63 4.62-4.84 7.86-9.41 7.23-4.56-.63-7.75-4.89-7.11-9.51C1542.16 730.04 1546.38 726.81 1550.94 727.44zM1540.43 708.27c-1.46 1.37-3.74 1.31-5.09-.16-1.35-1.45-1.25-3.75.21-5.12 2.34-2.19 7.35-4.49 12.66-4.79 4.04-.23 8.35.62 12.02 3.38 1.59 1.19 1.91 3.47.7 5.08-1.2 1.61-3.46 1.95-5.05.76-2.17-1.63-4.82-2.12-7.35-1.98C1544.96 705.65 1541.79 707 1540.43 708.27zM1634.54 729.52c-4.38 1.44-6.81 6.2-5.38 10.63 1.4 4.44 6.1 6.87 10.49 5.44 4.37-1.43 6.8-6.2 5.38-10.64C1643.63 730.51 1638.93 728.09 1634.54 729.52zM1657.89 698.2c1.46 1.36 1.57 3.67.22 5.14-1.33 1.48-3.61 1.57-5.07.21-1.35-1.26-4.52-2.58-8.09-2.75-2.52-.11-5.17.41-7.32 2.05-1.58 1.21-3.84.89-5.04-.71-1.2-1.61-.9-3.89.68-5.1 3.66-2.8 7.95-3.69 11.98-3.5C1650.54 693.78 1655.55 696.03 1657.89 698.2z" clip-rule="evenodd" fill="#000000" class="color000 svgShape"/><path fill="none" stroke="#000" stroke-linecap="round" stroke-linejoin="round" stroke-miterlimit="10" stroke-width="7.147" d="M1624.61,856.05c0,0,49.73-12.97,68.74-59.54" class="colorStroke000 svgStroke"/><path fill="#ef7f7f" d="M1643.87 779.03c3.87 16.83 29.78 10.13 25.42-6.57C1665.42 755.63 1639.51 762.33 1643.87 779.03zM1532.21 783.2c3.87 16.83 29.78 10.13 25.42-6.57C1553.76 759.8 1527.85 766.5 1532.21 783.2zM1586.9 756.55c.19-2.08.45-4.01.78-5.8.79-6.44 3.07-10.98 6.39-13.35 1.18-.9 2.5-1.51 3.99-1.79.09.01.19.02.28.03.09-.02.18-.03.28-.05 1.5.17 2.87.67 4.12 1.49 3.5 2.12 6.14 6.48 7.44 12.84.47 1.76.78 3.69 1.14 5.74.07 1.48.21 2.86.21 4.16.82 8.44-1.11 14.64-11.09 14.86-.18.01-.35.01-.53.02-.18.01-.35.02-.53.02-9.97.51-12.39-5.53-12.25-14C1587.03 759.42 1586.96 758.03 1586.9 756.55z" class="coloref7f7f svgShape"/><path fill="#ffffff" d="M1627.04,795.33c7.42,22.8-28.25,34.41-35.86,11.67c-3.17-9.62,7.2-5.12,17.1-8.34         C1618.18,795.43,1623.87,785.71,1627.04,795.33z" class="colorfff svgShape"/><path fill="#ffffff" fill-rule="evenodd" d="M1648.61 703.14c8.47.09 16.1 3.62 21.6 9.24 5.5 5.62 8.85 13.36 8.76 21.85-.09 8.5-3.6 16.16-9.2 21.67-5.61 5.52-13.31 8.88-21.78 8.79-8.47-.09-16.11-3.61-21.6-9.24-5.49-5.63-8.84-13.35-8.76-21.86.09-8.5 3.6-16.16 9.19-21.67C1632.43 706.42 1640.14 703.05 1648.61 703.14L1648.61 703.14zM1675.97 706.71c-6.94-7.11-16.58-11.56-27.29-11.67-10.7-.11-20.44 4.14-27.51 11.11-7.08 6.96-11.51 16.64-11.62 27.37-.11 10.74 4.13 20.5 11.07 27.61 6.94 7.11 16.58 11.56 27.29 11.67s20.44-4.14 27.51-11.11c7.09-6.96 11.52-16.64 11.63-27.38C1687.16 723.58 1682.92 713.81 1675.97 706.71zM1550.74 703.83c8.47.09 16.11 3.61 21.6 9.24 5.49 5.62 8.85 13.35 8.77 21.85-.09 8.5-3.6 16.16-9.2 21.67-5.61 5.51-13.31 8.87-21.78 8.79-8.46-.09-16.1-3.6-21.59-9.23-5.5-5.63-8.85-13.35-8.76-21.86.09-8.5 3.6-16.16 9.2-21.67C1534.56 707.11 1542.28 703.74 1550.74 703.83L1550.74 703.83zM1578.1 707.39c-6.94-7.1-16.58-11.55-27.29-11.66-10.7-.11-20.43 4.14-27.51 11.1-7.08 6.96-11.51 16.65-11.62 27.38-.11 10.74 4.13 20.5 11.07 27.61 6.94 7.1 16.58 11.55 27.28 11.66 10.7.11 20.44-4.14 27.51-11.1 7.08-6.96 11.51-16.64 11.62-27.38C1589.28 724.27 1585.04 714.5 1578.1 707.39z" clip-rule="evenodd" class="colorfff svgShape"/><path fill="#ffffff" fill-rule="evenodd" d="M1611.06,737.7c2.06,0.85,4.42-0.14,5.26-2.2c0.84-2.07-0.15-4.43-2.2-5.28          c-5.6-2.31-12.13-3.16-17.73-2.7c-6.2,0.52-11.55,2.72-13.97,6.45c-1.22,1.87-0.69,4.37,1.18,5.59          c1.86,1.22,4.35,0.68,5.56-1.18c0.98-1.5,4.03-2.47,7.87-2.79C1601.49,735.21,1606.66,735.88,1611.06,737.7z" clip-rule="evenodd" class="colorfff svgShape"/><line x1="1502.25" x2="1514.88" y1="702.71" y2="733.25" fill="none" stroke="#fff" stroke-linecap="round" stroke-linejoin="round" stroke-miterlimit="10" stroke-width="7.147" clip-rule="evenodd" class="colorStrokefff svgStroke"/><line x1="1684.17" x2="1709.72" y1="735.22" y2="715.97" fill="none" stroke="#fff" stroke-linecap="round" stroke-linejoin="round" stroke-miterlimit="10" stroke-width="7.147" clip-rule="evenodd" class="colorStrokefff svgStroke"/><g><path d="M1696.52,689.66c0,0-56.81,14.7-84.64-3.51c-23.5-15.38-34.18-39.39-34.18-39.39s-16.89-0.68-39.4,16.41        c-22.51,17.09-24.93,63.78-24.93,63.78s-46.23-74.61-27.7-104.17c18.53-29.56,54.84-9.66,54.84-9.66s-11.72-35.08,60.56-37.05        c83.36-2.26,112.36,76.39,112.36,76.39s18.28-2.34,28.38,17.86c10.34,20.68-2.56,50.18-2.56,50.18s-11.03-11.27-26.34-3.86        c-15.31,7.41-17.37-12.58-17.37-12.58L1696.52,689.66z" fill="#000000" class="color000 svgShape"/></g><g><path fill="#ff7c00" d="M1561.85,1348.03l-127.21,30.4c-13.74,3.28-27.54-5.19-30.82-18.93l-47.62-199.29        c-3.28-13.74,5.19-27.54,18.93-30.82l127.21-30.4c13.74-3.28,27.54,5.19,30.82,18.93l47.62,199.29        C1584.07,1330.94,1575.59,1344.74,1561.85,1348.03z" class="colorff7c00 svgShape"/><path fill="#ffa400" d="M1569.52,1351.34l-127.21,30.4c-13.74,3.28-27.54-5.19-30.82-18.93l-47.62-199.29        c-3.28-13.74,5.19-27.54,18.93-30.82l127.21-30.4c13.74-3.28,27.54,5.19,30.82,18.93l47.62,199.29        C1591.73,1334.25,1583.26,1348.05,1569.52,1351.34z" class="colorffa400 svgShape"/><circle cx="1391.25" cy="1156.45" r="11.78" fill="#ffffff" class="colorfff svgShape"/></g><g><path fill="#f9af9f" d="M1532.08,1319.38c11.86,4.01,25.03,4.48,37.93,0.57l224.16-68c24.74-7.5,45.42-25.13,56.75-48.37         c11.33-23.24,12.48-50.39,3.15-74.5l-75.61-195.49c-12.4-32.06-48.43-47.99-80.49-35.6c-32.06,12.4-47.99,48.43-35.6,80.49         l63.48,164.13l-171.37,50.78c0,0,7.42,28.4,5.66,28.89C1513.33,1235.37,1432.65,1272.76,1532.08,1319.38z" class="colorf9af9f svgShape"/><path fill="#f9af9f" d="M1558.86,1321.86l-8.95-22.24l-46.61,18.75c-6.14,2.47-9.12,9.45-6.65,15.59l0,0        c2.47,6.14,9.45,9.12,15.59,6.65L1558.86,1321.86z" class="colorf9af9f svgShape"/><path fill="#f9af9f" d="M1530.63,1308.47l-8.95-22.24l-46.61,18.75c-6.14,2.47-9.12,9.45-6.65,15.59l0,0        c2.47,6.14,9.45,9.12,15.59,6.65L1530.63,1308.47z" class="colorf9af9f svgShape"/><path fill="#f9af9f" d="M1509.33,1291.65l-8.95-22.24l-48.32,19.44c-6.14,2.47-9.12,9.45-6.65,15.6l0,0        c2.47,6.14,9.45,9.12,15.6,6.65L1509.33,1291.65z" class="colorf9af9f svgShape"/><path fill="#f9af9f" d="M1538.92,1255.39l-8.95-22.24l-70.29,27.43c-6.14,2.47-9.12,9.45-6.65,15.6l0,0        c2.47,6.14,9.45,9.12,15.6,6.65L1538.92,1255.39z" class="colorf9af9f svgShape"/><path fill="none" stroke="#000" stroke-linecap="round" stroke-linejoin="round" stroke-miterlimit="10" stroke-width="2.542" d="M1534.89 1305.28l-31.58 13.09c-13.53 6.36-4.95 26.61 8.95 22.24M1519.95 1286.75l-45.13 18.53c-1.83.75-3.53 1.85-4.75 3.41-1.4 1.78-2.19 3.86-2.27 6.26-.18 5.33 3.53 9.99 8.58 11.72 3.77 1.29 7.54.98 11.31-.65M1509.64 1265.92l-57.63 23.01c-2.38.95-4.55 2.48-5.96 4.62-1.22 1.85-1.83 3.93-1.72 6.32.21 4.41 3.02 8.4 7.06 10.18 5.28 2.32 12.44-.41 19.41-3.3" class="colorStroke000 svgStroke"/></g><path fill="#1e4273" d="M1766.31,902.35l61.92,134.93l-146.47,61.44l-47.71-156.87C1647.29,860.93,1731.54,850.03,1766.31,902.35z       " class="color1a95f1 svgShape"/><circle cx="1197.49" cy="596.35" r="17" fill="#ffa400" class="colorffa400 svgShape"/><path fill="#191d4a" d="M1311.46,611.23h-77.05c-5.13,0-9.29-4.16-9.29-9.29v-13.29c0-5.13,4.16-9.29,9.29-9.29h77.05      c5.13,0,9.29,4.16,9.29,9.29v13.29C1320.76,607.07,1316.6,611.23,1311.46,611.23z" class="color191d4a svgShape"/><g><path fill="#ffffff" stroke="#dcdcdc" stroke-miterlimit="10" stroke-width="5.225" d="M1200.74,1143.79H854.65c-21.31,0-38.59-17.28-38.59-38.59V779.34c0-21.31,17.28-38.59,38.59-38.59h346.09      c21.31,0,38.59,17.28,38.59,38.59v325.87C1239.32,1126.51,1222.05,1143.79,1200.74,1143.79z" class="colorfff svgShape colorStrokedcdcdc svgStroke"/><rect width="127.15" height="15.68" x="887.48" y="1036.86" fill="#eaeaea" class="coloreaeaea svgShape"/><rect width="290.88" height="15.68" x="887.48" y="1068.21" fill="#eaeaea" class="coloreaeaea svgShape"/><line x1="934.88" x2="980.92" y1="860.73" y2="943.25" fill="none" stroke="#1e4273" stroke-linecap="round" stroke-linejoin="round" stroke-miterlimit="10" stroke-width="4.122" class="colorStroke1a95f1 svgStroke"/><circle cx="934.88" cy="860.73" r="9.27" fill="#ffa400" class="colorffa400 svgShape"/><polyline fill="none" stroke="#1e4273" stroke-linecap="round" stroke-linejoin="round" stroke-miterlimit="10" stroke-width="4.122" points="1071.96 989.58 980.92 943.25 925.56 993.6"/><circle cx="980.92" cy="943.25" r="18.55" fill="#ffa400" class="colorffa400 svgShape"/><circle cx="925.56" cy="993.6" r="11.33" fill="#ffa400" class="colorffa400 svgShape"/><circle cx="1071.96" cy="989.58" r="9.27" fill="#ffa400" class="colorffa400 svgShape"/><g><rect width="53.9" height="2.27" x="1076.02" y="795.49" fill="#191d4a" transform="rotate(17.625 1102.836 796.505)" class="color191d4a svgShape"/><rect width="53.9" height="2.27" x="1072.6" y="806.24" fill="#191d4a" transform="rotate(17.625 1099.421 807.255)" class="color191d4a svgShape"/><rect width="53.9" height="2.27" x="1069.19" y="816.99" fill="#191d4a" transform="rotate(17.625 1096.006 818.006)" class="color191d4a svgShape"/><rect width="53.9" height="2.27" x="1065.01" y="830.13" fill="#191d4a" transform="rotate(17.625 1091.832 831.145)" class="color191d4a svgShape"/><rect width="53.9" height="2.27" x="1052.87" y="868.36" fill="#191d4a" transform="rotate(17.625 1079.69 869.37)" class="color191d4a svgShape"/><rect width="53.9" height="2.27" x="1049.45" y="879.11" fill="#191d4a" transform="rotate(17.625 1076.275 880.12)" class="color191d4a svgShape"/><rect width="53.9" height="2.27" x="1046.04" y="889.86" fill="#191d4a" transform="rotate(17.625 1072.86 890.87)" class="color191d4a svgShape"/><rect width="53.9" height="2.27" x="1041.86" y="903.01" fill="#191d4a" transform="rotate(17.625 1068.686 904.01)" class="color191d4a svgShape"/><path fill="#191d4a" d="M1115.43,874.59c-0.41-4.23-1.74-8.08-4.01-11.55c-1.17-1.8-2.6-3.49-4.27-5.08       c5.25-0.76,9.73-2.72,13.43-5.91c4.13-3.56,7.23-8.59,9.29-15.09l12.12-38.14c0.56-1.76,0.43-3.25-0.38-4.47       c-0.81-1.22-2.26-2.17-4.36-2.84c-2.01-0.64-3.72-0.7-5.13-0.18c-1.41,0.52-2.39,1.66-2.95,3.42l-12.05,37.94       c-2.21,6.97-5.84,11.55-10.87,13.75c-5.03,2.2-11.4,2.07-19.11-0.37c-7.62-2.42-12.88-5.99-15.76-10.7s-3.22-10.55-1-17.52       l12.05-37.94c0.56-1.76,0.41-3.26-0.44-4.49c-0.85-1.24-2.33-2.19-4.42-2.86c-2.09-0.67-3.85-0.74-5.26-0.22       c-1.41,0.52-2.39,1.66-2.95,3.42l-12.12,38.14c-1.55,4.87-2.12,9.42-1.71,13.64c0.41,4.23,1.74,8.08,4.01,11.55       c1.17,1.8,2.6,3.49,4.27,5.08c-5.25,0.76-9.73,2.72-13.43,5.91c-4.13,3.56-7.23,8.59-9.29,15.09l-12.12,38.14       c-0.56,1.76-0.43,3.25,0.38,4.47c0.81,1.22,2.26,2.17,4.36,2.84c2.01,0.64,3.72,0.7,5.13,0.18c1.41-0.52,2.39-1.66,2.95-3.42       l12.05-37.94c2.21-6.97,5.84-11.55,10.87-13.75c5.03-2.2,11.4-2.07,19.11,0.37c7.62,2.42,12.88,5.99,15.76,10.7       s3.22,10.55,1,17.52l-12.05,37.94c-0.56,1.76-0.41,3.26,0.44,4.49c0.85,1.24,2.33,2.19,4.42,2.86       c2.09,0.67,3.85,0.74,5.26,0.22c1.41-0.52,2.39-1.66,2.95-3.42l12.12-38.14C1115.27,883.36,1115.84,878.82,1115.43,874.59z" class="color191d4a svgShape"/></g></g><g><path fill="#ffffff" stroke="#dcdcdc" stroke-miterlimit="10" stroke-width="4.25" d="M973.86,2277.36H318.35c-27.74,0-50.22-22.48-50.22-50.22V1532.7c0-27.74,22.48-50.22,50.22-50.22h655.51     c27.74,0,50.22,22.48,50.22,50.22v694.44C1024.08,2254.87,1001.59,2277.36,973.86,2277.36z" class="colorfff svgShape colorStrokedcdcdc svgStroke"/><path fill="#e1e8ff" d="M968.46,2177.44H327.35c-16.63,0-30.11-13.48-30.11-30.11v-545.48c0-16.63,13.48-30.11,30.11-30.11h641.11     c16.63,0,30.11,13.48,30.11,30.11v545.48C998.57,2163.96,985.09,2177.44,968.46,2177.44z" class="colore1e8ff svgShape"/><circle cx="326.99" cy="1529.23" r="17" fill="#ffa400" class="colorffa400 svgShape"/><path fill="#191d4a" d="M440.97,1544.11h-77.05c-5.13,0-9.29-4.16-9.29-9.29v-13.29c0-5.13,4.16-9.29,9.29-9.29h77.05     c5.13,0,9.29,4.16,9.29,9.29v13.29C450.26,1539.95,446.1,1544.11,440.97,1544.11z" class="color191d4a svgShape"/><path fill="#f9af9f" d="M694.79,2205.51c-11.28,5.57-24.33,7.8-37.69,5.62l-232.27-37.89c-25.63-4.18-48.58-18.98-62.95-40.61       c-14.37-21.63-19.13-48.52-13.05-73.77l63.35-199.93c8.08-33.57,41.84-54.24,75.42-46.16c33.57,8.08,54.24,41.84,46.16,75.42       l-55.45,167.09l177.41,27.77c0,0-3.61,29.27-1.79,29.52C702.28,2119.36,787.59,2145.85,694.79,2205.51z" class="colorf9af9f svgShape"/><polygon fill="#1e4273" points="407.42 1799.02 336.54 1988.55 507.79 2048.29 572.57 1864.62" class="color1a95f1 svgShape"/><circle cx="484.47" cy="1846.88" r="90.23" fill="#1e4273" class="color1a95f1 svgShape"/><path fill="#f9af9f" d="M748.05,1921.63l71.2,134.11c15.34,28.89,51.19,39.87,80.08,24.54l0,0        c28.89-15.34,39.87-51.19,24.54-80.08l-71.2-134.12c-15.34-28.89-51.19-39.87-80.08-24.54h0        C743.7,1856.89,732.72,1892.74,748.05,1921.63z" class="colorf9af9f svgShape"/><polygon fill="#1e4273" points="845.46 1789.24 945.15 1968.09 782.89 2053.86 690.19 1879.95" class="color1a95f1 svgShape"/><circle cx="775.63" cy="1848.82" r="91.31" fill="#1e4273" class="color1a95f1 svgShape"/><path fill="#ffffff" d="M424.07,2234.42c138.37,52.91,307.55,31.6,415.8-4.66l-92.97-469.52l-240.67,0.62L424.07,2234.42z" class="colorfff svgShape"/><path fill="#1e4273" d="M574.29,1760.59c-4.69,22.66,10.17,45.47,53.16,45.03c47.43-0.67,62.8-24.63,56.97-45.19L574.29,1760.59z" class="color1a95f1 svgShape"/><path fill="none" stroke="#aec5ce" stroke-linecap="round" stroke-miterlimit="10" stroke-width="1.827" d="M545.95,1902.02" class="colorStrokeaec5ce svgStroke"/><path fill="#f9af9f" d="M653.77,1717.22l20.02,48.86c2.08,5.07,0.16,10.88-4.46,13.67c-24.63,14.9-50.02,15.76-76.15,3.11      c-5.03-2.44-7.46-8.35-5.58-13.68l17.47-49.67L653.77,1717.22z" class="colorf9af9f svgShape"/><path fill="#ef7f7f" d="M590.89,1758.76c25.68,13.09,51.93,12.45,78.72-1.34l-7.45-20.72l-63.81,0.79L590.89,1758.76z" opacity=".65" class="coloref7f7f svgShape"/><path fill="#f9af9f" d="M583.85,2101.5l-5.39-38.15l119.15-29.68c8.8-2.19,17.14,4.57,18.62,15.11l0,0      c1.49,10.53-4.44,20.85-13.23,23.04L583.85,2101.5z" class="colorf9af9f svgShape"/><path fill="none" stroke="#000" stroke-linecap="round" stroke-linejoin="round" stroke-miterlimit="10" stroke-width="4.293" d="M783.87,2035.16c20.64-0.06,23.25,27.85,6.85,33.14c-23.72,7.65-58.12,15.4-58.12,15.4" class="colorStroke000 svgStroke"/><path fill="#383838" d="M520.92 1644.11c-11.08-7.97-23.97-34.26-25.32-55.59l39.66 12.75-3.38 39.75L520.92 1644.11zM722.88 1596.21c4.9-10.16-1.01-35.24-8.45-51.25l-25.84 24.01 25.12 29.33L722.88 1596.21z" class="color383838 svgShape"/><path fill="#f9af9f" fill-rule="evenodd" d="M497.42,1632.16c11.32-9.53,30.3-5.46,42.36,9.1c12.05,14.56,12.65,34.12,1.31,43.64       c-11.32,9.54-30.31,5.47-42.36-9.09C486.67,1661.25,486.08,1641.7,497.42,1632.16z" clip-rule="evenodd" class="colorf9af9f svgShape"/><path fill="#ef7f7f" fill-rule="evenodd" d="M510.87,1638.93c7.54-6.35,20.18-3.63,28.21,6.06c8.02,9.69,8.42,22.72,0.87,29.06       c-7.54,6.35-20.19,3.64-28.21-6.05C503.71,1658.3,503.32,1645.28,510.87,1638.93z" clip-rule="evenodd" class="coloref7f7f svgShape"/><path fill="#f9af9f" fill-rule="evenodd" d="M736,1595.45c-13.02-7.04-30.78,0.8-39.64,17.49c-8.85,16.7-5.47,35.98,7.56,43       c13.02,7.05,30.79-0.79,39.64-17.48C752.43,1621.76,749.04,1602.49,736,1595.45z" clip-rule="evenodd" class="colorf9af9f svgShape"/><path fill="#ef7f7f" fill-rule="evenodd" d="M720.51,1601.91c9.79,1.16,16.45,12.24,14.87,24.73c-1.59,12.48-10.82,21.68-20.61,20.51       c-9.79-1.16-16.46-12.24-14.87-24.72C701.47,1609.93,710.71,1600.74,720.51,1601.91z" clip-rule="evenodd" class="coloref7f7f svgShape"/><path fill="#f9af9f" fill-rule="evenodd" d="M644.71,1748.47c11.91-1.99,23.67-7.38,34.37-14.98c37.26-26.45,53.95-84.03,32.66-138.68       c-42.56-109.14-179.8-85.65-182.61,31.25c-1.39,58.53,33.98,107.21,78.11,119.73C619.91,1749.38,632.82,1750.56,644.71,1748.47       z" clip-rule="evenodd" class="colorf9af9f svgShape"/><path fill-rule="evenodd" d="M674.42 1611.54c-4.25 1.49-6.5 6.2-4.99 10.5 1.5 4.32 6.17 6.62 10.43 5.13 4.26-1.49 6.5-6.19 5-10.51C683.36 1612.34 678.69 1610.06 674.42 1611.54zM680.82 1591.1c1.67 1.04 3.85.53 4.86-1.13 1.01-1.65.48-3.84-1.19-4.88-2.67-1.65-7.93-2.89-13.09-2.16-3.92.56-7.9 2.21-10.9 5.56-1.3 1.45-1.17 3.7.3 5.01 1.47 1.32 3.7 1.21 5-.24 1.77-1.98 4.22-2.96 6.68-3.32C675.97 1589.45 679.27 1590.13 680.82 1591.1zM594 1624.79c4.49.54 7.73 4.64 7.22 9.17-.49 4.54-4.53 7.78-9.03 7.25-4.48-.53-7.73-4.64-7.22-9.18C585.47 1627.5 589.51 1624.26 594 1624.79zM566.03 1604.08c-1.14 1.59-.8 3.82.78 4.98 1.56 1.16 3.77.81 4.91-.78 1.06-1.47 3.84-3.35 7.25-4.2 2.4-.6 5.04-.6 7.43.56 1.75.86 3.86.12 4.7-1.66.85-1.78.11-3.91-1.64-4.77-4.05-1.98-8.35-2.01-12.18-1.06C572.23 1598.41 567.86 1601.54 566.03 1604.08z" clip-rule="evenodd" fill="#000000" class="color000 svgShape"/><path fill="none" stroke="#000" stroke-linecap="round" stroke-linejoin="round" stroke-miterlimit="10" stroke-width="6.815" d="M646.67,1747.44c0,0,48.65-12.99,67.02-58.74" class="colorStroke000 svgStroke"/><path fill="#ef7f7f" d="M595.09 1679.02c-.47 16.91-26.66 15.48-25.69-1.41C569.87 1660.71 596.06 1662.14 595.09 1679.02zM703.17 1661.49c-.47 16.91-26.66 15.48-25.69-1.41C677.95 1643.17 704.14 1644.61 703.17 1661.49zM645.53 1647.56c-.4-2-.85-3.86-1.35-5.57-1.43-6.2-4.12-10.39-7.59-12.36-1.24-.76-2.6-1.21-4.07-1.33-.09.02-.18.04-.27.05-.09-.01-.18-.01-.27-.02-1.45.32-2.73.95-3.86 1.87-3.19 2.42-5.32 6.94-5.94 13.28-.28 1.77-.38 3.67-.52 5.71.08 1.45.09 2.81.22 4.08.07 8.31 2.58 14.15 12.33 13.34.18-.01.34-.03.52-.04.17-.01.34-.02.52-.03 9.76-.52 11.51-6.65 10.51-14.9C645.7 1650.38 645.63 1649.01 645.53 1647.56z" class="coloref7f7f svgShape"/><ellipse cx="640.63" cy="1695.1" fill="#ffffff" rx="11.01" ry="12.23" transform="rotate(-5.878 640.41 1694.603)" class="colorfff svgShape"/><g><path fill-rule="evenodd" d="M477.37,1574.11c-23.75-28.96-2.32-43.2,21-47.38c-14.63-29.56,19.83-39.83,42.04-32.83       c-8.88-32.37,45.07-65.16,90.37-23.07c4.2-15.67,44.31-27.6,52.64,8.66c11.51-10,40.07,3.63,41.15,31.52       c12.23,17.99,13.23,34.93-0.27,50.5c-2.49,6.84-30.9,10.27-36.9,0.86c-4.23,13.79-45.15,20.43-55.8,3.19       c-2.8,19.27-34.79,27.44-46.49,11.87c-1.31,24.26-40.2,34-50.5,23.94C493.36,1630.64,474.47,1590.33,477.37,1574.11z" clip-rule="evenodd" fill="#000000" class="color000 svgShape"/></g><g><path fill="#f9af9f" d="M646.73,1739.71l84.38,97.78l25.51-21.05l-84.38-97.78c-5.81-7.04-16.24-8.04-23.28-2.23l0,0       C641.91,1722.25,640.91,1732.67,646.73,1739.71z" class="colorf9af9f svgShape"/><path fill="#f9af9f" d="M667.19,1812.24l43.56,39.86l22.33-24.4l-43.56-39.86c-6.74-6.17-17.2-5.7-23.36,1.04l0,0       C659.99,1795.61,660.46,1806.07,667.19,1812.24z" class="colorf9af9f svgShape"/><path fill="#f9af9f" d="M648.33,1834.2l45.04,41.21l19.62-21.44l-45.04-41.21c-5.92-5.42-15.11-5.01-20.53,0.91l0,0       C642,1819.59,642.41,1828.78,648.33,1834.2z" class="colorf9af9f svgShape"/><path fill="#f9af9f" d="M641.28 1862.61l34.87 31.91 17.71-19.36-34.87-31.91c-5.35-4.89-13.64-4.52-18.53.82v0C635.56 1849.42 635.93 1857.72 641.28 1862.61zM719.64 1759.98l2.17 55.7 33.05-1.29-2.17-55.7c-.36-9.13-8.04-16.24-17.17-15.88l0 0C726.39 1743.17 719.29 1750.86 719.64 1759.98z" class="colorf9af9f svgShape"/><path fill="none" stroke="#000" stroke-linecap="round" stroke-linejoin="round" stroke-miterlimit="10" stroke-width="2.424" d="M721.44 1774.14l-49.2-55.48c0 0-10.75-13.39-23.28-2.23-6.62 6.25-10.1 13.21-2.23 23.28l38.03 44.74M719.18 1766.59c-.16-2.8 0-5.78.46-8.61 1.29-7.78 7.3-14.17 15.13-15.12 4.08-.5 8.66.36 12.46 4.72 2.88 3.3 4.35 7.6 4.54 11.98l2.38 54.85" class="colorStroke000 svgStroke"/><path fill="none" stroke="#000" stroke-linecap="round" stroke-linejoin="round" stroke-miterlimit="10" stroke-width="2.42" d="M695.84,1793.77c-1.82-2.13-4-4.16-6.29-5.88c-6.31-4.71-15.05-5.14-21.35-0.41       c-3.28,2.46-5.98,6.25-5.7,12.02c0.21,4.37,2.13,8.48,5.02,11.76l39.23,40.25" class="colorStroke000 svgStroke"/><path fill="none" stroke="#000" stroke-linecap="round" stroke-linejoin="round" stroke-miterlimit="10" stroke-width="2.229" d="M673.67,1818.43c-1.68-1.96-3.51-3.82-5.62-5.39c-5.81-4.34-13.87-4.74-19.67-0.38       c-3.02,2.27-5.51,5.76-5.25,11.07c0.2,4.02,1.96,7.81,4.62,10.83l36.36,36.1" class="colorStroke000 svgStroke"/><path fill="none" stroke="#000" stroke-linecap="round" stroke-linejoin="round" stroke-miterlimit="10" stroke-width="1.857" d="M660.78,1847.46c-1.4-1.63-2.92-3.18-4.69-4.49c-4.84-3.61-9.81-3.95-14.65-0.32       c-2.52,1.89-4.59,4.8-4.37,9.22c0.16,3.35,1.63,6.51,3.85,9.03l30.3,30.08" class="colorStroke000 svgStroke"/></g><g><path fill="#f9af9f" d="M677.79,1896.79l162.8,158.63c23.43,22.83,60.92,22.34,83.75-1.08l0,0        c22.83-23.43,22.34-60.92-1.08-83.75l-162.8-158.63c-23.43-22.83-60.92-22.34-83.75,1.08l0,0        C653.88,1836.47,654.37,1873.96,677.79,1896.79z" class="colorf9af9f svgShape"/></g><g><path fill="#a3b9c6" d="M986.1,2164.76l-323.38-0.19c-7.18,0-11.7-7.74-8.17-14l34.6-208.55c1.66-2.95,4.79-4.78,8.19-4.78         l323.38,0.19c7.18,0,11.7,7.74,8.17,14l-34.6,208.55C992.62,2162.93,989.49,2164.76,986.1,2164.76z" class="colora3b9c6 svgShape"/><path d="M989.28,2180.7l-397.11-0.22c-1.33,0-2.41-1.08-2.41-2.41l0.01-25.39c0-1.33,1.08-2.41,2.41-2.41l402,0.22         c1.33,0,2.41,1.08,2.41,2.41l-4.91,25.39C991.69,2179.62,990.61,2180.7,989.28,2180.7z" fill="#000000" class="color000 svgShape"/><circle cx="842.84" cy="2051" r="31.26" fill="#ffffff" class="colorfff svgShape"/></g><g><path fill="#f9af9f" d="M618.87,2177.69l4.29-37.41l119.67,14.84c8.84,1.1,14.99,10.66,13.75,21.36l0,0       c-1.24,10.7-9.41,18.49-18.24,17.4C690.7,2188.55,640.69,2185.34,618.87,2177.69z" class="colorf9af9f svgShape"/><path fill="#f9af9f" d="M639.82,2153.36l4.49-38.76l119.67,14.84c8.84,1.1,14.99,10.66,13.75,21.36l0,0       c-1.24,10.7-9.41,18.49-18.24,17.4L639.82,2153.36z" class="colorf9af9f svgShape"/><path fill="#f9af9f" d="M650.27,2123.28l4.16-36.01l119.68,14.8c8.84,1.09,15.07,10.04,13.92,19.98l0,0       c-1.15,9.94-9.24,17.12-18.08,16.03L650.27,2123.28z" class="colorf9af9f svgShape"/><path fill="#f9af9f" d="M641.04,2094.6l4.49-38.76l119.67,14.84c8.84,1.1,14.99,10.66,13.75,21.36l0,0       c-1.24,10.7-9.41,18.49-18.24,17.4L641.04,2094.6z" class="colorf9af9f svgShape"/><line x1="769.01" x2="694.03" y1="2101.61" y2="2094.62" fill="none" stroke="#000" stroke-linecap="round" stroke-linejoin="round" stroke-miterlimit="10" stroke-width="4.293" class="colorStroke000 svgStroke"/><line x1="767.37" x2="692.38" y1="2135.72" y2="2128.74" fill="none" stroke="#000" stroke-linecap="round" stroke-linejoin="round" stroke-miterlimit="10" stroke-width="4.293" class="colorStroke000 svgStroke"/><line x1="748.92" x2="673.93" y1="2166.47" y2="2159.48" fill="none" stroke="#000" stroke-linecap="round" stroke-linejoin="round" stroke-miterlimit="10" stroke-width="4.293" class="colorStroke000 svgStroke"/></g><line x1="622.69" x2="431.91" y1="2113.5" y2="2108.6" fill="none" stroke="#f9af9f" stroke-linecap="round" stroke-linejoin="round" stroke-miterlimit="10" stroke-width="129.632" class="colorStrokef9af9f svgStroke"/></g><g><path fill="#ffffff" stroke="#dcdcdc" stroke-miterlimit="10" stroke-width="4.25" d="M2663.96,2266.49h-655.51c-27.74,0-50.22-22.48-50.22-50.22v-694.44c0-27.74,22.48-50.22,50.22-50.22h655.51     c27.74,0,50.22,22.48,50.22,50.22v694.44C2714.18,2244,2691.7,2266.49,2663.96,2266.49z" class="colorfff svgShape colorStrokedcdcdc svgStroke"/><path fill="#e1e8ff" d="M2658.57,2166.57h-641.11c-16.63,0-30.11-13.48-30.11-30.11v-545.48c0-16.63,13.48-30.11,30.11-30.11h641.11     c16.63,0,30.11,13.48,30.11,30.11v545.48C2688.68,2153.09,2675.2,2166.57,2658.57,2166.57z" class="colore1e8ff svgShape"/><circle cx="2017.1" cy="1518.37" r="17" fill="#ffa400" class="colorffa400 svgShape"/><path fill="#191d4a" d="M2131.07,1533.24h-77.05c-5.13,0-9.29-4.16-9.29-9.29v-13.29c0-5.13,4.16-9.29,9.29-9.29h77.05     c5.13,0,9.29,4.16,9.29,9.29v13.29C2140.36,1529.08,2136.2,1533.24,2131.07,1533.24z" class="color191d4a svgShape"/><path d="M2413.75,1588.43c0,0,62.11-11.07,60.2,41.31c-1.92,52.37,94.89-6.4,110.88,60.84c15.98,67.23,87.82,2.98,125.18,56.79      c37.36,53.81,31.76,120.52-55.33,126.11c-87.09,5.59-149.69-42.9-161.2-100.43c-11.51-57.52-95.43-12.21-103.1-85.6      c-7.67-73.39,1.14-108.88,1.14-108.88l22.24,9.86L2413.75,1588.43z" fill="#000000" class="color000 svgShape"/><polygon fill="#1e4273" points="2588.19 1788.15 2659.07 1977.68 2487.82 2037.42 2423.04 1853.76" class="color1a95f1 svgShape"/><circle cx="2511.13" cy="1836.01" r="90.23" fill="#1e4273" class="color1a95f1 svgShape"/><polygon fill="#1e4273" points="2142.58 1792.88 2081.66 1988.37 2258.06 2039.07 2313.14 1849.85" class="color1a95f1 svgShape"/><circle cx="2223.14" cy="1836.89" r="91.31" fill="#1e4273" class="color1a95f1 svgShape"/><path fill="#ffffff" d="M2571.54,2223.55c-138.37,52.91-307.55,31.6-415.8-4.66l92.97-469.52l240.67,0.62L2571.54,2223.55z" class="colorfff svgShape"/><path fill="#1e4273" d="M2421.31,1749.72c4.69,22.66-10.17,45.47-53.16,45.03c-47.43-0.67-62.8-24.63-56.97-45.19L2421.31,1749.72z      " class="color1a95f1 svgShape"/><path fill="none" stroke="#aec5ce" stroke-linecap="round" stroke-miterlimit="10" stroke-width="1.827" d="M2449.66,1891.15" class="colorStrokeaec5ce svgStroke"/><path fill="#f9af9f" d="M2341.83,1706.36l-20.02,48.86c-2.08,5.07-0.16,10.88,4.46,13.67c24.63,14.9,50.02,15.76,76.15,3.11      c5.03-2.44,7.46-8.35,5.58-13.68l-17.47-49.67L2341.83,1706.36z" class="colorf9af9f svgShape"/><path fill="#ef7f7f" d="M2404.71,1747.89c-25.68,13.09-51.93,12.45-78.72-1.34l7.45-20.72l63.81,0.79L2404.71,1747.89z" opacity=".65" class="coloref7f7f svgShape"/><path fill="none" stroke="#000" stroke-linecap="round" stroke-linejoin="round" stroke-miterlimit="10" stroke-width="4.293" d="M2211.73,2024.3c-20.64-0.06-23.25,27.85-6.85,33.14c23.72,7.65,58.12,15.4,58.12,15.4" class="colorStroke000 svgStroke"/><line x1="2332.36" x2="2567.16" y1="1924.08" y2="2007.24" fill="none" stroke="#f9af9f" stroke-linecap="round" stroke-linejoin="round" stroke-miterlimit="10" stroke-width="129.632" class="colorStrokef9af9f svgStroke"/><rect width="31.46" height="176.84" x="2355.61" y="1800.69" fill="#171c80" transform="rotate(30 2371.398 1888.97)" class="color171c80 svgShape"/><line x1="2411.29" x2="2321.48" y1="1809.85" y2="1962.52" fill="none" stroke="#fff" stroke-miterlimit="10" stroke-width="1.741" class="colorStrokefff svgStroke"/><line x1="2419.81" x2="2330.01" y1="1815.41" y2="1968.08" fill="none" stroke="#fff" stroke-miterlimit="10" stroke-width="1.741" class="colorStrokefff svgStroke"/><path fill="#ffa400" d="M2429.43,1788.49L2429.43,1788.49c-7.52-4.34-17.15-1.77-21.49,5.76l-6.01,10.42l27.25,15.73l6.01-10.42       C2439.53,1802.46,2436.95,1792.84,2429.43,1788.49z" class="colorffa400 svgShape"/><path fill="#ffffff" d="M2365.05,1889.27c0,0,22.75,99.41,59.44,138.63c5.86,6.21,2.67,16.44-5.7,18.22l-46.79,9.66       L2365.05,1889.27z" class="colorfff svgShape"/><path fill="#ff7c00" d="M2309.22,1762.66l-125.03,12.18c-24.74,2.45-42.92,24.48-40.47,49.22l22.1,227.55       c2.45,24.74,24.48,42.92,49.22,40.47l125.03-12.18c24.74-2.45,42.92-24.48,40.47-49.22l-22.1-227.55       C2356.09,1778.4,2334.05,1760.22,2309.22,1762.66z" class="colorff7c00 svgShape"/><path fill="#ffa400" d="M2294.25,1765.97l-105.62,8.49c-27.11,2.22-47.08,24.09-44.46,48.86l23.62,227.77       c2.61,24.77,26.71,43.14,53.81,40.92l105.62-8.49c27.11-2.22,47.08-24.09,44.46-48.86l-23.62-227.77       C2345.45,1782.13,2321.35,1763.84,2294.25,1765.97z" class="colorffa400 svgShape"/><g><path fill="#f9af9f" d="M2162.01,2019.72l-2.92-37.34l23.2-1.47c10.31-0.81,19.33,6.9,20.13,17.21l0,0       c0.81,10.31-6.9,19.33-17.21,20.13L2162.01,2019.72z" class="colorf9af9f svgShape"/><path fill="#f9af9f" d="M2159.01,1984.18l-2.92-37.34l56.43-4.28c10.31-0.81,19.33,6.9,20.13,17.21v0       c0.81,10.31-6.9,19.33-17.21,20.13L2159.01,1984.18z" class="colorf9af9f svgShape"/><path fill="#f9af9f" d="M2155.3,1947.69l-2.92-37.34l81.13-6.35c10.31-0.81,19.33,6.9,20.13,17.21v0       c0.81,10.31-6.9,19.33-17.21,20.13L2155.3,1947.69z" class="colorf9af9f svgShape"/><path fill="#f9af9f" d="M2152.46,1912.1l-2.92-37.34l53.69-5.03c10.31-0.81,19.33,6.9,20.13,17.21l0,0       c0.81,10.31-6.9,19.33-17.21,20.13L2152.46,1912.1z" class="colorf9af9f svgShape"/><path fill="#f9af9f" d="M2164.2,2020.02L2164.2,2020.02l-12.32-145.67l0,0c-31.94,2.7-55.65,30.79-52.95,62.73l2.54,29.99       C2104.17,1999.02,2132.25,2022.72,2164.2,2020.02z" class="colorf9af9f svgShape"/><path fill="none" stroke="#000" stroke-linecap="round" stroke-linejoin="round" stroke-miterlimit="10" stroke-width="3.972" d="M2158.82 1981.99l23.47-1.09c23.35-.48 25.4 33.8 2.92 37.34M2155.83 1946.61l57.24-3.82c3.08-.22 6.23.14 9.02 1.47 3.2 1.52 5.74 3.88 7.52 7.18 3.96 7.34 2 16.44-3.86 22.36-4.38 4.42-9.87 6.61-16.28 6.95M2152.79 1910.56l80.87-6.48c3.99-.32 8.09.31 11.55 2.34 2.98 1.74 5.29 4.23 6.8 7.66 2.77 6.31 1.61 13.86-2.82 19.15-5.78 6.92-17.7 8.06-29.45 8.86" class="colorStroke000 svgStroke"/></g><g><path d="M2286.61,1637.94c-3.66,6.62-32.05-46.07-26.75-77.67c7.9-47.12,64.27-110.16,145.27-96.64        c81,13.52,112,106.46,106.66,149.95c-13.75,111.98-113.12,89.8-113.12,89.8S2310.65,1673.75,2286.61,1637.94z" fill="#000000" class="color000 svgShape"/></g><g><path fill="#f9af9f" fill-rule="evenodd" d="M2493.81,1612.95c-12.05-8.6-30.64-3.02-41.5,12.45c-10.85,15.47-9.88,35.02,2.18,43.61       c12.05,8.6,30.65,3.03,41.5-12.44C2506.85,1641.1,2505.87,1621.55,2493.81,1612.95z" clip-rule="evenodd" class="colorf9af9f svgShape"/><path fill="#ef7f7f" fill-rule="evenodd" d="M2480.94,1620.77c-8.02-5.72-20.41-2.01-27.64,8.29c-7.22,10.3-6.58,23.32,1.45,29.04       c8.02,5.73,20.41,2.02,27.64-8.28C2489.63,1639.51,2488.98,1626.5,2480.94,1620.77z" clip-rule="evenodd" class="coloref7f7f svgShape"/><path fill="#f9af9f" fill-rule="evenodd" d="M2253.06,1595.39c12.42-8.05,30.75-1.66,40.91,14.27c10.15,15.94,8.33,35.42-4.11,43.47       c-12.42,8.06-30.76,1.67-40.91-14.26C2238.79,1622.93,2240.63,1603.45,2253.06,1595.39z" clip-rule="evenodd" class="colorf9af9f svgShape"/><path fill="#ef7f7f" fill-rule="evenodd" d="M2269.02,1600.59c-9.66,1.94-15.42,13.51-12.85,25.84c2.58,12.32,12.52,20.75,22.18,18.8       c9.67-1.94,15.43-13.52,12.85-25.83C2288.63,1607.07,2278.69,1598.65,2269.02,1600.59z" clip-rule="evenodd" class="coloref7f7f svgShape"/><path fill="#f9af9f" fill-rule="evenodd" d="M2356.27,1740.64c-12.03-1.03-24.18-5.47-35.46-12.18c-39.26-23.39-60.49-79.46-43.62-135.63       c33.72-112.19,172.39-99.72,184.52,16.58c6.06,58.23-25.32,109.58-68.3,125.58       C2381.07,1739.58,2368.29,1741.78,2356.27,1740.64z" clip-rule="evenodd" class="colorf9af9f svgShape"/><path fill-rule="evenodd" d="M2315.73 1606.52c4.36 1.14 6.98 5.66 5.81 10.07-1.15 4.43-5.62 7.09-9.99 5.95-4.36-1.14-6.98-5.65-5.82-10.08C2306.89 1608.03 2311.36 1605.38 2315.73 1606.52zM2307.72 1586.65c-1.58 1.17-3.79.84-4.94-.74-1.14-1.57-.78-3.79.8-4.96 2.53-1.86 7.67-3.52 12.87-3.19 3.96.25 8.05 1.57 11.31 4.68 1.41 1.34 1.46 3.59.1 5.02-1.36 1.43-3.6 1.5-5 .16-1.92-1.83-4.44-2.62-6.92-2.77C2312.43 1584.63 2309.19 1585.57 2307.72 1586.65zM2396.95 1613.32c-4.43.89-7.34 5.25-6.46 9.72.85 4.48 5.14 7.39 9.58 6.5 4.42-.89 7.33-5.25 6.47-9.73C2405.67 1615.33 2401.39 1612.43 2396.95 1613.32z" clip-rule="evenodd" fill="#000000" class="color000 svgShape"/><path fill-rule="evenodd" d="M2396.95 1613.32c-4.43.89-7.34 5.25-6.46 9.72.85 4.48 5.14 7.39 9.58 6.5 4.42-.89 7.33-5.25 6.47-9.73C2405.67 1615.33 2401.39 1612.43 2396.95 1613.32zM2423.18 1590.43c1.27 1.5 1.1 3.75-.38 5.03-1.47 1.28-3.69 1.11-4.96-.38-1.17-1.39-4.1-3.04-7.56-3.61-2.44-.4-5.07-.2-7.36 1.15-1.67 1-3.84.43-4.82-1.28-.99-1.7-.42-3.89 1.26-4.89 3.88-2.3 8.17-2.67 12.06-2.03C2416.54 1585.28 2421.15 1588.05 2423.18 1590.43z" clip-rule="evenodd" fill="#000000" class="color000 svgShape"/><path fill="none" stroke="#000" stroke-linecap="round" stroke-linejoin="round" stroke-miterlimit="10" stroke-width="6.815" d="M2354.24,1739.78c0,0-49.53-9.07-71.49-53.2" class="colorStroke000 svgStroke"/><path fill="#ef7f7f" d="M2400.19 1667.46c1.82 16.82 27.81 13.3 25.5-3.45C2423.86 1647.19 2397.88 1650.71 2400.19 1667.46zM2291.05 1658.61c1.82 16.82 27.81 13.3 25.5-3.45C2314.73 1638.34 2288.75 1641.86 2291.05 1658.61zM2347.41 1640.13c.24-2.03.54-3.92.9-5.66.93-6.29 3.28-10.68 6.58-12.92 1.18-.86 2.49-1.41 3.95-1.65.09.01.18.02.27.03.09-.01.18-.03.27-.04 1.47.2 2.8.73 4 1.56 3.37 2.16 5.85 6.5 6.98 12.76.42 1.74.68 3.63.97 5.65.03 1.45.14 2.81.11 4.08.59 8.28-1.44 14.31-11.22 14.28-.18 0-.35 0-.52 0-.17 0-.34.01-.52.01-9.78.26-12-5.71-11.66-14.01C2347.46 1642.94 2347.42 1641.58 2347.41 1640.13z" class="coloref7f7f svgShape"/><path fill="#ffffff" d="M2337.64,1679.06c-0.98,23.92,36.44,25.46,37.62,1.54c0.46-10.1-8.3-2.98-18.69-3.41        C2346.18,1676.77,2338.09,1668.95,2337.64,1679.06z" class="colorfff svgShape"/></g><g><path d="M2462.56,1604.9c-92.09-6.28-99.89-66.09-99.89-66.09s-4.92,19.12-43.54,23.42c-38.62,4.3-44.76,29.01-44.76,29.01       l8.16-39.45l31.39-38.16c22.12-14.93,44.43-22.98,67.08-18.25c28.15,0.64,45.4,6.42,56.64,15.03l22.82,52.31L2462.56,1604.9z" fill="#000000" class="color000 svgShape"/></g></g></svg>